<?xml version="1.0" encoding="utf-8"?>
<!-- Generator: Adobe Illustrator 19.2.1, SVG Export Plug-In . SVG Version: 6.00 Build 0)  -->
<svg version="1.1" id="Capa_1" xmlns="http://www.w3.org/2000/svg" xmlns:xlink="http://www.w3.org/1999/xlink" x="0px" y="0px"
	 viewBox="0 0 512 512" style="enable-background:new 0 0 512 512;" xml:space="preserve">
<style type="text/css">
	.st0{fill:#FFFFFF;}
</style>
<g>
	<g>
		<path class="st0" d="M354.7,8.4H158.3c-79.8,0-144.7,65-144.7,144.9v196.5c0,79.9,64.9,144.9,144.7,144.9h196.4
			c79.8,0,144.7-65,144.7-144.9V153.2C499.4,73.4,434.5,8.4,354.7,8.4z M450.5,349.8c0,53-42.9,95.9-95.8,95.9H158.3
			c-52.9,0-95.9-43-95.9-95.9V153.2c0-53,42.9-95.9,95.9-95.9h196.4c52.9,0,95.8,43,95.8,95.9V349.8L450.5,349.8z M256.5,125.7
			c-69.3,0-125.7,56.4-125.7,125.8s56.4,125.7,125.7,125.7s125.7-56.4,125.7-125.7S325.8,125.7,256.5,125.7z M256.5,328.3
			c-42.4,0-76.8-34.4-76.8-76.8s34.4-76.9,76.8-76.9s76.8,34.4,76.8,76.9S298.9,328.3,256.5,328.3z M382.4,96.5
			c-16.6,0-30.1,13.5-30.1,30.1s13.5,30.1,30.1,30.1s30.1-13.5,30.1-30.1S399,96.5,382.4,96.5z"/>
	</g>
</g>
</svg>
